<svg fill="#11D33E" id="Capa_1" enable-background="new 0 0 512 512" height="512" viewBox="0 0 512 512" width="512" xmlns="http://www.w3.org/2000/svg"><path d="m512 263.495v-44.682c0-2.889-1.311-5.733-3.51-7.608l-130.831-111.6c-10.858-9.261-26.141-11.159-38.934-4.841l-44.82 22.142c-9.116 4.503-15.388 12.823-17.206 22.826-1.819 10.003 1.122 19.998 8.069 27.421 7.03 7.514 17.317 11.168 27.511 9.784 10.196-1.388 19.131-7.66 23.898-16.779l16.086-30.768c2.22-4.246 6.19-7.205 10.896-8.116 4.701-.912 9.493.349 13.14 3.459l98.57 84.08h-42.053c-5.522 0-10 4.477-10 10s4.478 10 10 10h59.184v24.682h-472v-24.682h324.818c5.522 0 10-4.477 10-10s-4.478-10-10-10h-307.686l98.635-84.136c3.638-3.069 8.398-4.309 13.074-3.403 4.705.912 8.676 3.87 10.896 8.117l16.086 30.768c4.768 9.119 13.701 15.392 23.897 16.779 10.193 1.386 20.48-2.271 27.512-9.784 6.947-7.424 9.888-17.419 8.069-27.422s-8.09-18.322-17.205-22.825l-44.822-22.142c-12.794-6.32-28.077-4.42-38.932 4.841l-11.515 9.822c-.035.03-.07.06-.105.089l-119.212 101.687c-2.198 1.876-3.51 4.719-3.51 7.608v44.682c0 4.851 3.455 8.893 8.039 9.805-5.065 7.35-8.039 16.246-8.039 25.826v62.019c0 32.966 26.82 59.786 59.786 59.786h86.651c24.618 0 46.417-14.775 55.534-37.643.075-.188.144-.377.208-.569l15.38-46.602c23.844-14.397 53.42-14.194 77.059.537l15.204 46.065c.063.192.133.382.207.57 9.119 22.867 30.917 37.642 55.534 37.642h86.651c32.966 0 59.786-26.82 59.786-59.786v-62.019c0-9.581-2.974-18.477-8.039-25.826 4.583-.911 8.039-4.953 8.039-9.804zm-193.547-112.604c-1.796 3.436-5.029 5.706-8.87 6.229-3.841.521-7.563-.801-10.211-3.632-2.579-2.755-3.671-6.465-2.996-10.178.676-3.713 3.003-6.801 6.387-8.472l32.521-16.065c-.258.443-16.831 32.118-16.831 32.118zm-109.215-16.053c3.383 1.671 5.71 4.759 6.386 8.472.675 3.713-.417 7.423-2.995 10.179-2.648 2.831-6.369 4.154-10.211 3.631-3.841-.523-7.074-2.793-8.871-6.229 0 0-16.573-31.675-16.83-32.119zm-25.951 241.308c-6.13 15.065-20.563 24.784-36.85 24.784h-86.651c-21.938.001-39.786-17.848-39.786-39.786v-62.019c0-14.133 11.498-25.631 25.631-25.631h171.535zm72.37-70.712c-9.975 0-19.956 1.605-29.558 4.815l12.13-36.752h35.54l12.217 37.015c-9.834-3.385-20.078-5.078-30.329-5.078zm236.343 55.71c0 21.938-17.848 39.786-39.786 39.786h-86.651c-16.286 0-30.719-9.719-36.85-24.784l-33.879-102.652h171.535c14.133 0 25.631 11.498 25.631 25.631z"/><path d="m385.41 228.043c8.39 3.442 16.839-5.615 12.751-13.724-1.918-3.805-6.176-6.019-10.396-5.391-4.232.63-7.632 3.978-8.379 8.177-.81 4.557 1.76 9.164 6.024 10.938z"/></svg>
