<!--<?xml version="1.0" standalone="no"?>-->
<!--<!DOCTYPE svg PUBLIC "-//W3C//DTD SVG 20010904//EN"-->
<!--        "http://www.w3.org/TR/2001/REC-SVG-20010904/DTD/svg10.dtd">-->
<svg version="1.0" xmlns="http://www.w3.org/2000/svg"
     width="1280.000000pt" height="985.000000pt" viewBox="0 0 1280.000000 985.000000"
     preserveAspectRatio="xMidYMid meet">
    <metadata>
        Created by potrace 1.15, written by Peter Selinger 2001-2017
    </metadata>
    <g transform="translate(0.000000,985.000000) scale(0.100000,-0.100000)"
       fill="#11D33E" stroke="none">
        <path d="M6636 9840 c-828 -54 -1643 -296 -2271 -672 -404 -242 -697 -468
-1005 -777 -350 -350 -611 -704 -888 -1206 -444 -803 -723 -1879 -768 -2967
-6 -155 -8 -168 -25 -168 -23 0 -22 6 -4 -105 8 -49 15 -141 15 -204 0 -111
-1 -117 -35 -186 -44 -88 -145 -216 -228 -289 -34 -30 -147 -120 -252 -202
-637 -494 -1042 -850 -1112 -975 -91 -162 -82 -328 25 -498 167 -267 709 -545
1593 -820 239 -74 1357 -385 1714 -476 783 -201 1346 -288 1865 -289 435 -1
595 28 1025 182 849 306 1625 632 2282 960 l198 99 130 12 c72 6 225 23 340
37 1685 200 2893 602 3341 1110 158 180 224 346 224 569 l0 91 -117 89 c-222
170 -365 337 -413 481 -25 74 -24 88 8 297 l19 117 -28 0 c-33 0 -35 9 -44
220 -38 877 -223 1694 -566 2505 -193 458 -476 916 -818 1325 -129 154 -438
463 -586 586 -714 592 -1573 972 -2505 1108 -310 45 -810 66 -1114 46z"/>
    </g>
</svg>
